<?xml version="1.0" encoding="UTF-8"?><svg id="_レイヤー_4" xmlns="http://www.w3.org/2000/svg" viewBox="0 0 500 59"><defs><style>.cls-1{fill:currentColor;}</style></defs><path class="cls-1" d="M26.54,46.59c4.22-.1,4.53-.52,4.53-5.31v-24.54c0-4.84-.31-5.16-4.53-5.37v-1.25h13.86v1.25c-4.27.21-4.58.52-4.58,5.37v24.54c0,4.79.36,5.21,4.58,5.31v1.3h-13.86v-1.3Z"/><path class="cls-1" d="M61.5,39.03c0,4.17.16,5.31.73,6.15.62.94,1.72,1.35,3.8,1.41v1.3h-11.46v-1.3c1.98,0,3.07-.42,3.75-1.41.73-.99,1.04-3.02,1.04-7.03v-20.99c0-5.11-.37-5.63-4.27-5.78v-1.25h9.22l21.72,31.15v-21.41c0-4.69-.16-6.2-.78-7.03-.68-.94-1.82-1.35-3.96-1.46v-1.25h11.62v1.25c-3.91.21-4.74,1.61-4.74,7.76v28.91h-2.97L61.5,13.92v25.11Z"/><path class="cls-1" d="M134.75,46.64c1.77,0,2.81-.26,3.28-.78.57-.62.57-.68.68-4.58v-24.54c-.1-3.33-.1-3.39-.26-3.85-.37-1.09-1.3-1.51-3.7-1.51v-1.25h14.22c4.06,0,7.55.57,9.59,1.51,3.02,1.46,4.48,3.8,4.48,7.24,0,4.95-3.18,7.71-9.74,8.54v.36c2.55.1,4.17.47,5.99,1.41,3.54,1.82,5.21,4.53,5.21,8.49,0,4.79-2.29,7.76-6.98,9.27-1.98.57-5.26.94-8.8.94h-13.96v-1.25ZM148.6,26.84c6.25,0,9.48-2.66,9.48-7.76s-3.23-7.4-9.95-7.4h-4.79v15.16h5.26ZM148.4,46.33c3.8,0,6.51-.68,8.18-2.14,1.67-1.35,2.61-3.85,2.61-6.93,0-3.54-1.35-6.1-3.86-7.45-1.51-.78-4.06-1.25-6.93-1.25h-5.05v17.76h5.05Z"/><path class="cls-1" d="M188.36,41.27c0,4.79.31,5.21,4.06,5.31v1.3h-12.71v-1.3c3.7-.1,4.01-.52,4.01-5.31v-24.54c0-4.84-.26-5.21-4.01-5.37v-1.25h14.43c9.53,0,13.96,2.97,13.96,9.33,0,2.24-.68,4.43-1.77,5.89-1.56,2.03-4.84,3.44-8.75,3.85v.47c1.77.37,2.97.89,4.17,1.88,1.62,1.41,2.61,2.97,4.32,6.82,2.55,5.78,2.97,6.51,4.01,7.4.78.68,1.51.94,2.76.99v1.15h-8.13c-2.03-5.68-4.22-10.94-5.68-13.49-1.25-2.24-2.24-3.28-3.8-3.8-1.09-.42-2.4-.63-3.7-.63h-3.18v11.3ZM192.68,28.41c3.12,0,5.68-.57,7.19-1.62,2.08-1.41,3.18-3.8,3.18-6.98,0-5.47-3.23-8.13-9.9-8.13h-4.79v16.72h4.32Z"/><path class="cls-1" d="M232.9,39.5c-.62,1.67-.99,3.28-.99,4.27,0,1.88,1.35,2.71,4.38,2.81v1.3h-12.19v-1.3c2.97,0,4.69-1.82,6.67-7.08l11.1-29.38,3.23-.36,11.04,31.46c1.46,4.27,2.45,5.26,5.47,5.37v1.3h-13.44v-1.3c2.66-.1,3.75-.73,3.75-2.24,0-.62-.21-1.67-.62-2.97l-2.19-6.56h-14.53l-1.67,4.69ZM242.07,14.65l-6.77,18.23h13.13l-6.36-18.23Z"/><path class="cls-1" d="M280.94,39.03c0,4.17.16,5.31.73,6.15.63.94,1.72,1.35,3.8,1.41v1.3h-11.46v-1.3c1.98,0,3.07-.42,3.75-1.41.73-.99,1.04-3.02,1.04-7.03v-20.99c0-5.11-.37-5.63-4.27-5.78v-1.25h9.22l21.72,31.15v-21.41c0-4.69-.16-6.2-.78-7.03-.68-.94-1.82-1.35-3.96-1.46v-1.25h11.62v1.25c-3.91.21-4.74,1.61-4.74,7.76v28.91h-2.97l-23.7-34.12v25.11Z"/><path class="cls-1" d="M326.42,46.64c1.77,0,2.81-.26,3.28-.78.57-.62.57-.68.68-4.58v-24.54c-.1-3.33-.1-3.39-.26-3.85-.37-1.09-1.3-1.51-3.7-1.51v-1.25h14.69c5.37,0,9.12.68,11.67,2.14,5.31,3.02,8.08,8.7,8.08,16.51s-2.55,13.13-7.29,16.2c-3.18,2.03-7.45,2.92-13.75,2.92h-13.39v-1.25ZM340.44,46.33c5.11,0,9.12-1.46,11.46-4.17,2.4-2.76,3.7-7.08,3.7-12.5,0-5-.99-9.32-2.81-12.45-2.19-3.65-6.46-5.52-12.71-5.52h-4.95v34.64h5.31Z"/><path class="cls-1" d="M384.55,47.76c3.16-.08,3.4-.39,3.4-3.98v-18.38c0-3.63-.23-3.86-3.4-4.02v-.94h10.38v.94c-3.2.16-3.43.39-3.43,4.02v18.38c0,3.59.27,3.9,3.43,3.98v.98h-10.38v-.98Z"/><path class="cls-1" d="M411.68,32.62c1.72-3.01,3.63-4.14,6.87-4.14,2.46,0,4.06.74,5.11,2.42.74,1.13,1.01,2.5,1.01,4.88v8.08c0,3.67.2,3.94,2.85,4.02v.86h-8.86v-.86c1.29-.04,1.99-.2,2.3-.59.23-.31.35-.62.39-1.29.04-.43.12-1.87.12-2.15v-7.85c0-1.95-.19-3.32-.62-4.21-.62-1.37-1.8-2.07-3.43-2.07-1.83,0-3.32.86-4.41,2.62-.82,1.29-1.33,3.16-1.33,4.76v6.75c0,3.67.2,3.94,2.85,4.02v.86h-8.9v-.86c2.62-.08,2.85-.39,2.85-4.02v-10.46c0-2.93-.47-3.51-2.69-3.51v-.86l5.89-.43v4.02Z"/><path class="cls-1" d="M455.62,43.74c-1.6,3.63-4.29,5.5-8.04,5.5-5.5,0-9.33-4.14-9.33-10.11,0-6.36,3.86-10.66,9.56-10.66,2.26,0,4.37.74,5.78,1.99,1.01.94,1.68,2.11,1.68,3.08,0,.74-.74,1.21-1.95,1.21-.55,0-1.05-.16-1.33-.39-.23-.23-.23-.31-.31-1.33-.23-2.15-1.83-3.59-4.1-3.59-3.55,0-5.66,3.28-5.66,8.9,0,5.93,2.46,9.56,6.52,9.56,2.81,0,4.96-1.6,6.28-4.72l.9.55Z"/><path class="cls-1" d="M473.46,46.47c0,1.56-1.17,2.77-2.73,2.77s-2.77-1.21-2.77-2.77,1.17-2.73,2.77-2.73,2.73,1.17,2.73,2.73Z"/></svg>